<?xml version="1.0"?>
<svg xmlns="http://www.w3.org/2000/svg" height="512px" viewBox="-26 0 511 512" width="512px"><g><path d="m193.390625 472h-112.890625c-22.054688 0-40-17.945312-40-40v-302c0-22.054688 17.945312-40 40-40h62.890625v10c0 33.085938 26.914063 60 60 60 33.082031 0 60-26.914062 60-60v-10h63c22.054687 0 40 17.945312 40 40v152c0 11.046875 8.953125 20 20 20 11.042969 0 20-8.953125 20-20v-152c0-44.113281-35.890625-80-80-80h-63v-30c0-11.046875-8.957031-20-20-20h-80c-11.046875 0-20 8.953125-20 20v30h-62.890625c-44.113281 0-80 35.886719-80 80v302c0 44.113281 35.886719 80 80 80h112.890625c11.042969 0 20-8.953125 20-20s-8.957031-20-20-20zm-10-432h40v60c0 11.027344-8.972656 20-20 20-11.03125 0-20-8.972656-20-20zm143 202c0 11.046875-8.957031 20-20 20h-137c-11.046875 0-20-8.953125-20-20s8.953125-20 20-20h137c11.042969 0 20 8.953125 20 20zm0 80c0 11.046875-8.957031 20-20 20h-136c-11.046875 0-20-8.953125-20-20s8.953125-20 20-20h136c11.042969 0 20 8.953125 20 20zm-205.996094-80c0 11.046875-8.953125 20-20 20s-20-8.953125-20-20 8.953125-20 20-20 20 8.953125 20 20zm0 80c0 11.046875-8.953125 20-20 20s-20-8.953125-20-20 8.953125-20 20-20 20 8.953125 20 20zm335.257813 31.585938-98.984375 138.261718c-.214844.300782-.4375.59375-.671875.882813-8.984375 11.183593-22.347656 18.144531-36.660156 19.097656-1.132813.078125-2.269532.113281-3.398438.113281-13.136719 0-25.910156-5.0625-35.476562-14.171875-.0625-.058593-.121094-.117187-.179688-.171875l-63.820312-62.28125c-7.90625-7.714844-8.0625-20.378906-.347657-28.285156 7.714844-7.902344 20.375-8.058594 28.28125-.34375l63.710938 62.175781c3.144531 2.945313 6.710937 3.179688 8.566406 3.054688 1.808594-.117188 5.179687-.792969 7.875-3.914063l98.578125-137.699218c6.429688-8.984376 18.925781-11.050782 27.90625-4.621094 8.980469 6.429687 11.046875 18.921875 4.621094 27.902344zm0 0" data-original="#000000" class="active-path" data-old_color="#000000" fill="#FD5969"/></g> </svg>
